<svg id="Layer_1" data-name="Layer 1" xmlns="http://www.w3.org/2000/svg" viewBox="0 0 544 768"><defs><style>.cls-1{fill:#fff;}</style></defs><path class="cls-1" d="M210.57,348.62h84.9c21,0,36.9,15.28,36.9,35.54s-15.86,35.54-36.9,35.54H267.62c-6.75,0-12.68,6.25-12.68,13.36s5.93,13.36,12.68,13.36h27.85c35.68,0,63.62-27.34,63.62-62.26,0-34.15-27.94-60.9-63.62-60.9h-84.9c-7.74,0-14,5.69-14,12.68S202.83,348.62,210.57,348.62Z"/><path class="cls-1" d="M99.41,530.19c0,8,5.45,14,12.68,14a13.73,13.73,0,0,0,14-14V85.84h-.07V27.42c0-8-5.45-14-12.68-14a13.73,13.73,0,0,0-14,14v81.93l.08,5.21Z"/><path class="cls-1" d="M209.89,249.34h93.73c41,0,79.16,19.46,103.81,52.48l4.89,7.26a133.8,133.8,0,0,1,22.6,75.08c0,73.53-58.59,133.34-130.62,133.34H210.57c-7.49,0-13.36,5.57-13.36,12.69,0,8.13,5.62,14,13.36,14H304.3c86.76,0,157.35-71.81,157.35-160.07a164,164,0,0,0-18.73-75.5c-19.42-37.2-52.47-65.74-90.66-78.3a155.4,155.4,0,0,0-48.64-7.75H209.89c-7.74,0-13.36,5.91-13.36,14C196.53,243.76,202.4,249.34,209.89,249.34Z"/><path class="cls-1" d="M87.1,640.43a22.45,22.45,0,0,0-17.89-8.13q-9.31,0-14.53,6.39V612.13h-20V688h20v-4.88q5.2,6.39,14.53,6.39A22.45,22.45,0,0,0,87.1,681.4Q94,673.27,94,660.91T87.1,640.43ZM71.32,668.18a9,9,0,0,1-7,2.92,9,9,0,0,1-7-2.92,11.25,11.25,0,0,1,0-14.53,9,9,0,0,1,7-2.93,9,9,0,0,1,7,2.93,11.25,11.25,0,0,1,0,14.53Z"/><path class="cls-1" d="M147.48,654.41V632.73a17.82,17.82,0,0,0-10.3,3,14.68,14.68,0,0,0-6,8.57V633.81H111.16V688h20.06V667.85q0-7.49,4.87-10.89A15.56,15.56,0,0,1,147.48,654.41Z"/><path class="cls-1" d="M189.65,632.3q-12.47,0-20.65,8.23t-8.19,20.6a27,27,0,0,0,8.4,20.33q8.4,8.07,22.28,8.07,14.85,0,23-8.78l-13.11-11a14.23,14.23,0,0,1-9.22,3.46q-8.46,0-11-5.42h36a28.82,28.82,0,0,0,.87-7q0-12.26-8-20.33T189.65,632.3Zm-8.89,22.54q2.38-6.5,9.43-6.5t8.78,6.5Z"/><polygon class="cls-1" points="288.62 663.84 280.82 633.81 265.64 633.81 257.84 663.84 251.55 633.81 230.41 633.81 246.13 688.02 266.51 688.02 273.23 662.54 279.95 688.02 300.33 688.02 316.05 633.81 294.91 633.81 288.62 663.84"/><polygon class="cls-1" points="395.73 633.81 389.44 663.84 381.63 633.81 366.46 633.81 358.65 663.84 352.36 633.81 331.23 633.81 346.94 688.02 367.32 688.02 374.05 662.54 380.77 688.02 401.15 688.02 416.87 633.81 395.73 633.81"/><polygon class="cls-1" points="490.25 663.84 482.45 633.81 467.27 633.81 459.47 663.84 453.18 633.81 432.04 633.81 447.76 688.02 468.14 688.02 474.86 662.54 481.58 688.02 501.96 688.02 517.68 633.81 496.54 633.81 490.25 663.84"/><path class="cls-1" d="M25,749.57a12.39,12.39,0,0,1-6.33,1.68,12.54,12.54,0,0,1-9.37-3.75,13.49,13.49,0,0,1,0-18.5,12.54,12.54,0,0,1,9.37-3.75,12.34,12.34,0,0,1,6.29,1.65,11.17,11.17,0,0,1,4.32,4.39l2-1.14A13.56,13.56,0,0,0,26,725a14.61,14.61,0,0,0-7.38-1.91,15.14,15.14,0,1,0,0,30.28,14.77,14.77,0,0,0,7.47-1.95,13.51,13.51,0,0,0,5.2-5.22l-2-1.14A10.94,10.94,0,0,1,25,749.57Z"/><path class="cls-1" d="M71.76,737.54a8.69,8.69,0,0,0-6.86-14H53.32v29.36h2.23v-12h9.23l7.08,12h2.56l-7.3-12.33A8.74,8.74,0,0,0,71.76,737.54Zm-16.21,1.25V725.66H64.9a6.18,6.18,0,0,1,4.57,1.93,6.42,6.42,0,0,1,1.89,4.66,6.32,6.32,0,0,1-1.89,4.63,6.16,6.16,0,0,1-4.57,1.91Z"/><path class="cls-1" d="M104.2,723.57,92.79,752.93h2.35L98,745.46h14.7l2.86,7.47h2.35l-11.36-29.36Zm-5.39,19.79,6.54-17.05,6.54,17.05Z"/><polygon class="cls-1" points="138.97 752.93 141.19 752.93 141.19 739.51 154.74 739.51 154.74 737.41 141.19 737.41 141.19 725.66 155.24 725.66 155.24 723.57 138.97 723.57 138.97 752.93"/><polygon class="cls-1" points="174.78 725.66 184.01 725.66 184.01 752.93 186.27 752.93 186.27 725.66 195.5 725.66 195.5 723.57 174.78 723.57 174.78 725.66"/><path class="cls-1" d="M264.79,749.57a13.27,13.27,0,0,1-15.71-2.07,13.49,13.49,0,0,1,0-18.5,12.54,12.54,0,0,1,9.37-3.75,12.34,12.34,0,0,1,6.29,1.65,11.17,11.17,0,0,1,4.32,4.39l2-1.14a13.56,13.56,0,0,0-5.2-5.13,14.58,14.58,0,0,0-7.38-1.91,15.14,15.14,0,1,0,7.47,28.33,13.44,13.44,0,0,0,5.2-5.22l-2-1.14A11.07,11.07,0,0,1,264.79,749.57Z"/><path class="cls-1" d="M311.57,737.54a8.61,8.61,0,0,0-.73-11.41,8.36,8.36,0,0,0-6.13-2.56H293.14v29.36h2.22v-12h9.24l7.08,12h2.55l-7.29-12.33A8.72,8.72,0,0,0,311.57,737.54Zm-16.21,1.25V725.66h9.35a6.17,6.17,0,0,1,4.57,1.93,6.42,6.42,0,0,1,1.89,4.66,6.32,6.32,0,0,1-1.89,4.63,6.15,6.15,0,0,1-4.57,1.91Z"/><polygon class="cls-1" points="337.84 739.17 351.26 739.17 351.26 737.07 337.84 737.07 337.84 725.66 352.31 725.66 352.31 723.57 335.62 723.57 335.62 752.93 352.52 752.93 352.52 750.83 337.84 750.83 337.84 739.17"/><path class="cls-1" d="M383.56,723.57l-11.41,29.36h2.35l2.86-7.47h14.7l2.86,7.47h2.35l-11.36-29.36Zm-5.39,19.79,6.54-17.05,6.54,17.05Z"/><polygon class="cls-1" points="413.55 725.66 422.77 725.66 422.77 752.93 425.04 752.93 425.04 725.66 434.27 725.66 434.27 723.57 413.55 723.57 413.55 725.66"/><rect class="cls-1" x="455.65" y="723.57" width="2.22" height="29.36"/><polygon class="cls-1" points="490.97 750.03 481.28 723.57 478.85 723.57 489.79 752.93 492.14 752.93 503.09 723.57 500.7 723.57 490.97 750.03"/><polygon class="cls-1" points="526.32 750.83 526.32 739.17 539.74 739.17 539.74 737.07 526.32 737.07 526.32 725.66 540.79 725.66 540.79 723.57 524.1 723.57 524.1 752.93 541 752.93 541 750.83 526.32 750.83"/></svg>