<svg id="Layer_1" data-name="Layer 1" xmlns="http://www.w3.org/2000/svg" viewBox="0 0 530 768"><defs><style>.cls-1{fill:#171719;}</style></defs><path class="cls-1" d="M169.55,480.94h118.5c29.36,0,51.5,21.33,51.5,49.61s-22.14,49.6-51.5,49.6H249.18c-9.43,0-17.7,8.72-17.7,18.65s8.27,18.65,17.7,18.65h38.87c49.79,0,88.8-38.17,88.8-86.9,0-47.67-39-85-88.8-85H169.55c-10.81,0-19.6,7.94-19.6,17.7S158.74,480.94,169.55,480.94Z"/><path class="cls-1" d="M14.38,734.37c0,11.17,7.61,19.6,17.7,19.6a19.17,19.17,0,0,0,19.6-19.6V114.14h-.1V32.6C51.58,21.43,44,13,33.88,13a19.17,19.17,0,0,0-19.6,19.6V147l.1,7.28Z"/><path class="cls-1" d="M168.6,342.35H299.42c57.18,0,110.5,27.18,144.91,73.26l6.82,10.14a186.77,186.77,0,0,1,31.55,104.8c0,102.62-81.79,186.12-182.33,186.12H169.55c-10.46,0-18.65,7.77-18.65,17.7,0,11.36,7.84,19.6,18.65,19.6H300.37C421.47,754,520,653.74,520,530.55a228.78,228.78,0,0,0-26.15-105.39c-27.1-51.93-73.23-91.77-126.54-109.3a217,217,0,0,0-67.89-10.81H168.6c-10.81,0-18.65,8.25-18.65,19.6C150,334.58,158.14,342.35,168.6,342.35Z"/></svg>