<svg id="Layer_1" data-name="Layer 1" xmlns="http://www.w3.org/2000/svg" viewBox="0 0 681.51 987.54"><defs><style>.cls-1{fill:#9f8f68;stroke:#9f8f68;stroke-linecap:round;stroke-linejoin:round;stroke-width:20px;}</style></defs><path class="cls-1" d="M266.17,567.57H368.35c25.32,0,44.41,18.39,44.41,42.77s-19.09,42.78-44.41,42.78H334.83c-8.13,0-15.26,7.52-15.26,16.08s7.13,16.09,15.26,16.09h33.52c42.94,0,76.58-32.92,76.58-74.95,0-41.1-33.64-73.3-76.58-73.3H266.17c-9.32,0-16.9,6.85-16.9,15.26S256.85,567.57,266.17,567.57Z"/><path class="cls-1" d="M132.37,786.1c0,9.64,6.56,16.9,15.26,16.9a16.52,16.52,0,0,0,16.9-16.9V251.27h-.09V181c0-9.64-6.56-16.9-15.26-16.9a16.52,16.52,0,0,0-16.9,16.9v98.62l.09,6.27Z"/><path class="cls-1" d="M265.35,448.06H378.16c49.31,0,95.28,23.43,125,63.18L509,520a161.09,161.09,0,0,1,27.21,90.37c0,88.5-70.53,160.5-157.22,160.5H266.17c-9,0-16.08,6.7-16.08,15.26,0,9.79,6.76,16.9,16.08,16.9H379c104.43,0,189.39-86.42,189.39-192.66a197.3,197.3,0,0,0-22.55-90.87c-23.37-44.78-63.15-79.13-109.12-94.25a186.91,186.91,0,0,0-58.54-9.32H265.35c-9.32,0-16.08,7.11-16.08,16.9C249.27,441.36,256.33,448.06,265.35,448.06Z"/></svg>